HIERARCHY
ROOT Hips
{
	OFFSET 0.000000 0.000000 0.000000
	CHANNELS 6 Xposition Yposition Zposition Xrotation Yrotation Zrotation
	JOINT LeftUpLeg_virtual
	{
		OFFSET 0.000000 0.000000 0.000000
		CHANNELS 3 Xrotation Yrotation Zrotation
		JOINT LeftUpLeg
		{
			OFFSET 10.205400 -3.823500 0.155100
			CHANNELS 3 Xrotation Yrotation Zrotation
			JOINT LeftLeg
			{
				OFFSET 0.708757 -12.982077 0.567790
				CHANNELS 3 Xrotation Yrotation Zrotation
				JOINT LeftFoot
				{
					OFFSET -0.708756 -10.717838 -2.184338
					CHANNELS 3 Xrotation Yrotation Zrotation
					JOINT LeftToeBase
					{
						OFFSET 0.108149 -7.191104 7.560241
						CHANNELS 3 Xrotation Yrotation Zrotation
						JOINT LeftToe_End
						{
							OFFSET 0.070230 0.081724 4.490308
							CHANNELS 3 Xrotation Yrotation Zrotation
							End Site
							{
								OFFSET 0 0 0
							}
						}
					}
				}
			}
		}
	}
	JOINT RightUpLeg_virtual
	{
		OFFSET 0.000000 0.000000 0.000000
		CHANNELS 3 Xrotation Yrotation Zrotation
		JOINT RightUpLeg
		{
			OFFSET -10.205400 -3.823500 0.005500
			CHANNELS 3 Xrotation Yrotation Zrotation
			JOINT RightLeg
			{
				OFFSET -0.708756 -12.982134 0.610632
				CHANNELS 3 Xrotation Yrotation Zrotation
				JOINT RightFoot
				{
					OFFSET 0.708754 -10.717769 -1.945823
					CHANNELS 3 Xrotation Yrotation Zrotation
					JOINT RightToeBase
					{
						OFFSET -0.108140 -7.191069 7.372968
						CHANNELS 3 Xrotation Yrotation Zrotation
						JOINT RightToe_End
						{
							OFFSET -0.070227 0.081735 4.479403
							CHANNELS 3 Xrotation Yrotation Zrotation
							End Site
							{
								OFFSET 0 0 0
							}
						}
					}
				}
			}
		}
	}
	JOINT Spine_virtual
	{
		OFFSET 0.000000 0.000000 0.000000
		CHANNELS 3 Xrotation Yrotation Zrotation
		JOINT Spine
		{
			OFFSET 0.000000 6.876099 0.125700
			CHANNELS 3 Xrotation Yrotation Zrotation
			JOINT Spine1
			{
				OFFSET 0.000000 5.730043 0.104720
				CHANNELS 3 Xrotation Yrotation Zrotation
				JOINT Spine1_split
				{
					OFFSET 0.000000 5.730043 0.104720
					CHANNELS 3 Xrotation Yrotation Zrotation
					JOINT Spine2
					{
						OFFSET 0.000000 5.730043 0.104720
						CHANNELS 3 Xrotation Yrotation Zrotation
						JOINT Neck_virtual
						{
							OFFSET 0.000000 0.000000 0.000000
							CHANNELS 3 Xrotation Yrotation Zrotation
							JOINT Neck
							{
								OFFSET 0.000000 10.314075 0.188496
								CHANNELS 3 Xrotation Yrotation Zrotation
								JOINT Head
								{
									OFFSET 0.000000 7.643700 -2.377400
									CHANNELS 3 Xrotation Yrotation Zrotation
									JOINT HeadTop_End
									{
										OFFSET 0.000000 43.788605 -13.619600
										CHANNELS 3 Xrotation Yrotation Zrotation
										End Site
										{
											OFFSET 0 0 0
										}
									}
								}
							}
						}
						JOINT LeftShoulder_virtual
						{
							OFFSET 0.000000 0.000000 0.000000
							CHANNELS 3 Xrotation Yrotation Zrotation
							JOINT LeftShoulder
							{
								OFFSET 2.196100 4.412489 0.087492
								CHANNELS 3 Xrotation Yrotation Zrotation
								JOINT LeftShoulder_split
								{
									OFFSET 2.196100 4.412489 0.087492
									CHANNELS 3 Xrotation Yrotation Zrotation
									JOINT LeftArm
									{
										OFFSET 8.771219 -2.981674 -0.026999
										CHANNELS 3 Xrotation Yrotation Zrotation
										JOINT LeftForeArm
										{
											OFFSET 8.512804 0.000000 -0.000000
											CHANNELS 3 Xrotation Yrotation Zrotation
											JOINT LeftHand
											{
												OFFSET 18.484802 0.000000 -0.000000
												CHANNELS 3 Xrotation Yrotation Zrotation
												End Site
												{
													OFFSET 0 0 0
												}
											}
										}
									}
								}
							}
						}
						JOINT RightShoulder_virtual
						{
							OFFSET 0.000000 0.000000 0.000000
							CHANNELS 3 Xrotation Yrotation Zrotation
							JOINT RightShoulder
							{
								OFFSET -2.196100 4.412496 0.070690
								CHANNELS 3 Xrotation Yrotation Zrotation
								JOINT RightShoulder_split
								{
									OFFSET -2.196100 4.412496 0.070690
									CHANNELS 3 Xrotation Yrotation Zrotation
									JOINT RightArm
									{
										OFFSET -8.771282 -2.981682 -0.094208
										CHANNELS 3 Xrotation Yrotation Zrotation
										JOINT RightForeArm
										{
											OFFSET -8.494598 0.000000 0.000000
											CHANNELS 3 Xrotation Yrotation Zrotation
											JOINT RightHand
											{
												OFFSET -18.483803 0.000000 0.000001
												CHANNELS 3 Xrotation Yrotation Zrotation
												End Site
												{
													OFFSET 0 0 0
												}
											}
										}
									}
								}
							}
						}
					}
				}
			}
		}
	}
}
MOTION
Frames: 11
Frame Time: 0.03333333
3.111413 27.291183 -3.803719 0.000000 0.000000 0.000000 8.563094 -43.564565 11.729433 -37.309359 2.433668 20.677464 44.030623 -25.616295 -4.417408 -10.015779 3.641821 -14.723282 1.193484 -3.338425 -1.775765 0.000000 0.000000 0.000000 4.767001 -40.387585 9.318063 -27.696753 -2.053772 -42.260126 44.001554 17.796541 2.440768 -22.819030 -10.357661 39.308459 4.985161 11.538794 -24.094192 0.000000 0.000000 0.000000 1.658141 -36.996952 6.257905 4.204795 0.792422 -5.833089 9.547907 -7.716781 -4.789349 0.660003 -0.910338 0.388446 0.000000 0.000000 0.000000 9.278569 -4.531066 -4.773635 -32.423997 32.853633 12.358992 -16.451706 55.429396 23.063104 0.000000 0.000000 0.000000 13.030884 -7.740662 -5.746989 0.042510 -9.906167 8.076380 -12.791024 1.463279 0.477435 -17.340004 14.748241 -54.106098 26.113830 -42.339315 25.409327 0.000000 0.000000 0.000000 14.358833 -4.906951 -4.533245 -6.912070 2.679763 -12.090101 4.403855 3.137218 5.569427 -49.532088 -1.070390 43.646978 -172.157773 76.212658 170.018148 0.000000 0.000000 0.000000 
2.185051 27.463575 -3.443823 0.000000 0.000000 0.000000 8.363165 -42.820341 11.251811 -37.263180 3.043541 23.109551 43.760885 -26.949461 -4.371073 -8.755425 3.369090 -13.588128 2.196644 -3.271674 -2.648425 0.000000 0.000000 0.000000 6.314776 -40.029003 10.189152 -25.659399 -0.914141 -40.171717 45.185827 18.232300 1.317531 -24.642460 -9.559317 35.285478 5.618240 11.866486 -24.368549 0.000000 0.000000 0.000000 1.104814 -35.938242 6.481013 3.419984 0.215534 -6.265797 9.322014 -7.863885 -5.128912 0.235984 -0.923527 0.178406 0.000000 0.000000 0.000000 8.819416 -4.479094 -5.317187 -32.401079 32.737148 12.069053 -18.075525 55.883932 22.818866 0.000000 0.000000 0.000000 12.592180 -7.678240 -6.049066 0.277313 -9.397550 9.077710 -14.138278 1.034966 0.711850 -20.081426 13.071717 -53.529121 28.306023 -44.161087 26.966926 0.000000 0.000000 0.000000 13.802733 -5.040288 -4.778633 -7.875954 -0.140876 -13.403059 4.819886 2.772263 7.406925 -50.410443 -2.342414 43.172868 -173.369121 72.501495 171.598394 0.000000 0.000000 0.000000 
0.593553 27.737215 -2.981800 0.000000 0.000000 0.000000 8.746184 -41.770951 11.644328 -35.358465 3.385823 25.077624 41.919193 -27.354638 -4.351425 -9.133441 4.546854 -13.765068 0.956226 -3.092609 -3.266072 0.000000 0.000000 0.000000 7.745164 -39.539473 11.348766 -27.378528 2.272564 -39.128149 51.378281 22.498956 -1.956049 -18.678518 -6.078798 41.143413 -3.087898 13.563065 -24.143105 0.000000 0.000000 0.000000 1.890709 -34.291730 7.570961 2.569812 -0.563485 -6.896604 8.785816 -7.921968 -6.014887 -0.032995 -0.639401 0.017771 0.000000 0.000000 0.000000 8.469392 -4.418780 -6.247667 -32.901042 32.226718 11.763357 -22.978911 56.856653 24.173435 0.000000 0.000000 0.000000 11.708537 -7.444516 -6.662835 0.344408 -7.658550 9.589850 -14.144834 0.135393 0.210648 -25.361525 12.535911 -50.226254 29.452947 -48.755260 27.404071 0.000000 0.000000 0.000000 12.969900 -5.296078 -5.524629 -9.051457 -3.364063 -15.709915 5.470668 3.370824 10.113027 -52.628322 -6.044581 42.077131 -173.134231 66.285032 172.312354 0.000000 0.000000 0.000000 
-1.361251 27.952742 -2.649418 0.000000 0.000000 0.000000 9.406143 -40.262005 12.556709 -32.303793 3.860016 26.246274 40.089293 -27.045032 -3.921164 -10.938340 6.836101 -15.513393 -0.169913 -2.895489 -4.047347 0.000000 0.000000 0.000000 8.500725 -38.260186 12.389418 -32.477546 7.144590 -39.443369 61.523749 28.076157 -7.167796 -9.617674 -0.438172 51.460151 -13.258439 14.409344 -22.595883 0.000000 0.000000 0.000000 3.976474 -32.226147 9.491136 1.937872 -1.441478 -7.568799 8.082898 -7.938361 -7.208022 -0.014870 -0.361898 0.018773 0.000000 0.000000 0.000000 8.272923 -4.367037 -7.397627 -33.581185 31.474243 11.564424 -30.394694 57.588467 27.033310 0.000000 0.000000 0.000000 10.629838 -7.108701 -7.436562 0.127001 -5.224623 9.583667 -13.276078 -1.169937 -0.302737 -31.981353 13.695709 -44.273935 31.038408 -56.168245 28.211253 0.000000 0.000000 0.000000 11.898336 -5.580797 -6.573278 -10.297891 -6.223502 -18.362233 6.762371 4.553816 11.865799 -56.159591 -10.567098 39.686544 -172.028928 60.329306 172.575016 0.000000 0.000000 0.000000 
-3.410930 28.000265 -2.432732 0.000000 0.000000 0.000000 10.193769 -38.207388 13.859513 -29.195125 4.375635 27.213613 38.903214 -27.219733 -2.625159 -12.447011 9.540833 -20.159681 0.517838 -2.845169 -4.853448 0.000000 0.000000 0.000000 8.948794 -36.224035 13.298200 -38.160462 11.531182 -39.888657 70.066669 30.397863 -11.693289 -3.014346 2.907646 57.840419 -17.113843 13.197692 -20.925671 0.000000 0.000000 0.000000 6.681881 -30.220609 11.788606 1.649576 -2.215966 -7.946677 7.237155 -7.837803 -8.385108 0.069367 -0.205671 0.021252 0.000000 0.000000 0.000000 8.170942 -4.276217 -8.537737 -34.146622 30.347876 11.565932 -39.248084 57.817305 30.958642 0.000000 0.000000 0.000000 9.660132 -6.747110 -8.111545 -0.308264 -2.631299 9.611852 -11.942559 -2.354538 -0.758225 -39.045087 15.957308 -36.463798 36.097724 -64.734880 32.142525 0.000000 0.000000 0.000000 10.759501 -5.778443 -7.688363 -11.296743 -7.956695 -20.896180 7.607671 4.569585 10.947591 -60.802610 -14.195036 35.481494 -170.566202 56.332617 172.698519 0.000000 0.000000 0.000000 
-5.463833 27.819321 -2.103579 0.000000 0.000000 0.000000 10.790093 -35.788757 15.058902 -25.875309 4.950328 27.889524 37.033576 -27.940554 -0.947155 -14.174383 12.140816 -25.854680 1.448960 -3.066549 -4.265021 0.000000 0.000000 0.000000 9.360197 -34.166454 14.293464 -42.608018 13.665691 -40.451030 72.749451 29.344275 -12.763757 -0.120832 0.703542 58.420698 -12.818114 10.725945 -19.858546 0.000000 0.000000 0.000000 9.199761 -28.500472 13.909118 1.792235 -2.724300 -7.752347 6.389349 -7.527102 -9.308576 0.160475 -0.028403 0.044929 0.000000 0.000000 0.000000 8.129073 -4.132883 -9.495491 -34.328176 28.767889 11.894231 -47.572643 56.869726 34.466118 0.000000 0.000000 0.000000 8.918360 -6.371631 -8.578304 -0.883355 -0.215329 9.994645 -10.847040 -3.543360 -1.332367 -44.842019 18.776175 -28.896068 50.211832 -71.872421 44.580911 0.000000 0.000000 0.000000 9.732699 -5.784374 -8.709725 -11.546316 -7.964511 -23.012552 7.546743 3.081689 8.611403 -65.745106 -15.783935 29.740566 -169.076210 54.571128 172.820780 0.000000 0.000000 0.000000 
-7.525887 27.499525 -1.847433 0.000000 0.000000 0.000000 10.471214 -33.630045 15.833326 -21.814014 5.137492 28.518330 33.605166 -30.405222 0.317826 -14.900097 14.070089 -33.097352 0.643796 -3.332431 -1.599249 0.000000 0.000000 0.000000 9.479795 -32.878598 15.460161 -45.896761 14.092022 -41.814493 69.535704 26.775757 -11.085174 1.752272 -4.854704 56.278122 -5.366821 8.967010 -19.767083 0.000000 0.000000 0.000000 11.151501 -26.673530 15.499784 2.477072 -2.816599 -6.817228 5.611239 -7.027194 -9.899013 0.194313 0.168528 0.043531 0.000000 0.000000 0.000000 8.133662 -3.910485 -10.206744 -33.949315 26.543768 12.446792 -53.923981 54.538938 36.241919 0.000000 0.000000 0.000000 8.520128 -5.964400 -8.750086 -1.530438 2.097044 10.896454 -10.423325 -3.448877 -1.601230 -48.319699 21.792547 -23.300010 76.000724 -74.632248 68.175943 0.000000 0.000000 0.000000 9.001241 -5.607501 -9.506799 -10.976842 -6.471212 -24.801050 7.489843 1.505918 5.963170 -69.631320 -14.988842 23.772033 -167.986467 54.353853 173.148082 0.000000 0.000000 0.000000 
-9.481617 27.209646 -1.636114 0.000000 0.000000 0.000000 9.672517 -31.838329 16.378194 -17.398806 5.374465 29.263177 28.571561 -33.472110 -0.239484 -15.252857 15.708392 -38.542583 -0.231673 -3.663110 1.103228 0.000000 0.000000 0.000000 9.382400 -33.296759 16.576707 -48.444599 13.977282 -43.645947 61.966864 24.131653 -8.964639 5.740463 -9.752086 56.019149 -0.230053 9.136663 -21.225062 0.000000 0.000000 0.000000 12.489412 -25.247784 16.559391 3.779559 -2.363787 -5.046883 4.920365 -6.312301 -10.163421 0.280728 0.466689 -0.022174 0.000000 0.000000 0.000000 8.179717 -3.568805 -10.613174 -32.860211 23.573223 13.252000 -57.709204 51.302941 36.072360 0.000000 0.000000 0.000000 8.477106 -5.547258 -8.706767 -2.216366 4.364922 12.252909 -9.702742 -2.430090 -1.023629 -49.455078 24.748275 -21.124498 95.694427 -72.414321 85.412451 0.000000 0.000000 0.000000 8.817922 -5.297420 -10.006766 -9.585337 -3.846055 -26.472427 5.889728 0.819133 3.577753 -70.996511 -13.451241 18.835864 -167.515539 55.124585 173.754261 0.000000 0.000000 0.000000 
-11.366296 27.009848 -1.539604 0.000000 0.000000 0.000000 8.994405 -30.578504 16.538441 -13.892872 5.149034 30.113870 24.254789 -34.804776 -2.654965 -14.496938 17.504573 -39.074068 0.791374 -3.830931 1.556387 0.000000 0.000000 0.000000 9.613198 -34.411169 17.480312 -49.800835 14.076117 -44.761341 53.704077 23.256839 -8.279819 9.499440 -12.366426 57.945358 3.409753 10.606926 -23.933026 0.000000 0.000000 0.000000 12.972495 -24.418481 17.130123 5.775691 -1.376711 -2.599147 4.422004 -5.453818 -10.183167 0.265799 0.574920 -0.086397 0.000000 0.000000 0.000000 8.397955 -3.113101 -10.726152 -30.951883 20.317508 14.424822 -59.458962 47.420945 34.533874 0.000000 0.000000 0.000000 8.753765 -5.116108 -8.582707 -2.923180 6.796318 13.579505 -8.859773 -1.726031 0.256391 -48.335118 28.206516 -22.951625 102.277008 -68.814108 89.967074 0.000000 0.000000 0.000000 9.232788 -4.879493 -10.206427 -7.507717 -0.530692 -28.145787 2.390137 1.139423 2.665231 -69.539515 -12.879125 15.649799 -167.635805 56.385175 174.432226 0.000000 0.000000 0.000000 
-13.242791 26.885603 -1.540310 0.000000 0.000000 0.000000 8.940258 -30.456565 16.462945 -13.151653 3.621826 31.640090 24.453180 -34.444781 -4.880192 -10.272809 19.117394 -35.952880 1.794292 -3.763850 -0.797427 0.000000 0.000000 0.000000 10.143009 -35.281069 17.839168 -49.552438 14.387034 -43.958674 48.304761 24.145888 -9.145778 8.421427 -14.383554 58.612797 6.524818 12.381649 -26.426222 0.000000 0.000000 0.000000 12.910159 -24.625286 17.412099 8.245999 0.119918 0.147325 4.339331 -4.574736 -9.970271 0.139563 0.337605 -0.105630 0.000000 0.000000 0.000000 8.919210 -2.536061 -10.541090 -28.122402 17.235228 15.865498 -60.194744 43.200636 32.451929 0.000000 0.000000 0.000000 9.473712 -4.696840 -8.392703 -3.510629 9.415040 14.457694 -8.054416 -0.844694 1.866794 -45.205720 31.652913 -28.314421 102.114470 -65.807042 88.593291 0.000000 0.000000 0.000000 10.290721 -4.384430 -10.084932 -5.185901 2.911472 -29.877430 -0.921191 2.684259 3.078261 -65.746977 -14.150875 14.559018 -168.109875 57.904609 174.800646 0.000000 0.000000 0.000000 
-15.279246 26.868172 -1.514765 0.000000 0.000000 0.000000 9.935461 -31.899494 16.496447 -15.529262 1.763690 33.066496 29.869131 -31.127802 -6.276699 -4.973714 21.492705 -26.793172 -0.092478 -3.733022 -5.352202 0.000000 0.000000 0.000000 10.781120 -36.226350 17.763341 -47.490155 13.981997 -41.235194 47.403712 24.836894 -10.654710 1.637079 -17.493691 55.595257 7.484770 14.145074 -27.289976 0.000000 0.000000 0.000000 12.581930 -25.970693 17.498719 10.952557 1.961953 2.698779 4.946957 -3.724363 -9.491362 0.032491 -0.069661 -0.071520 0.000000 0.000000 0.000000 9.773048 -1.887192 -10.048474 -24.621003 14.730316 17.636457 -60.798724 38.957623 30.499588 0.000000 0.000000 0.000000 10.690722 -4.308425 -8.138494 -3.773698 11.898225 14.546110 -7.645632 -0.165208 3.407114 -40.011255 34.654679 -36.406862 96.466190 -64.000020 82.744354 0.000000 0.000000 0.000000 11.932283 -3.793762 -9.638410 -2.883279 6.091257 -31.549942 -2.991672 5.235295 4.434672 -60.725183 -17.041158 15.475032 -168.542991 59.831392 174.516101 0.000000 0.000000 0.000000 
